<svg width="112" height="16" viewBox="0 0 112 16" fill="none" xmlns="http://www.w3.org/2000/svg">
<path d="M9.688 12.5H8.128V7.284H1.952V12.5H0.392V1.036H1.952V6.148H8.128V1.036H9.688V12.5ZM20.2938 1.036V2.34H16.5898V12.5H15.0378V2.34H11.3178V1.036H20.2938ZM27.5633 8.356C27.6379 8.484 27.7019 8.62 27.7553 8.764C27.8139 8.90267 27.8699 9.044 27.9233 9.188C27.9766 9.03867 28.0326 8.89733 28.0913 8.764C28.1499 8.62533 28.2166 8.48667 28.2913 8.348L32.1713 1.3C32.2406 1.17733 32.3126 1.10267 32.3873 1.076C32.4619 1.04933 32.5686 1.036 32.7073 1.036H33.8513V12.5H32.4913V4.076C32.4913 3.964 32.4939 3.844 32.4993 3.716C32.5046 3.588 32.5126 3.45733 32.5233 3.324L28.5953 10.492C28.4619 10.732 28.2753 10.852 28.0353 10.852H27.8113C27.5713 10.852 27.3846 10.732 27.2513 10.492L23.2353 3.3C23.2513 3.43867 23.2619 3.57467 23.2673 3.708C23.2779 3.84133 23.2833 3.964 23.2833 4.076V12.5H21.9233V1.036H23.0673C23.2059 1.036 23.3126 1.04933 23.3873 1.076C23.4619 1.10267 23.5339 1.17733 23.6033 1.3L27.5633 8.356ZM38.194 11.196H43.154V12.5H36.642V1.036H38.194V11.196ZM57.3865 12.5H56.1865C56.0478 12.5 55.9358 12.4653 55.8505 12.396C55.7652 12.3267 55.7012 12.2387 55.6585 12.132L54.5865 9.364H49.4425L48.3705 12.132C48.3332 12.228 48.2692 12.3133 48.1785 12.388C48.0878 12.4627 47.9758 12.5 47.8425 12.5H46.6425L51.2265 1.036H52.8025L57.3865 12.5ZM49.8745 8.244H54.1545L52.3545 3.58C52.2372 3.292 52.1225 2.932 52.0105 2.5C51.9518 2.71867 51.8932 2.92133 51.8345 3.108C51.7812 3.28933 51.7278 3.44933 51.6745 3.588L49.8745 8.244ZM64.1335 5.836C64.0908 5.89467 64.0482 5.94 64.0055 5.972C63.9628 6.004 63.9015 6.02 63.8215 6.02C63.7415 6.02 63.6535 5.988 63.5575 5.924C63.4668 5.85467 63.3495 5.78 63.2055 5.7C63.0615 5.62 62.8855 5.548 62.6775 5.484C62.4748 5.41467 62.2242 5.38 61.9255 5.38C61.5308 5.38 61.1815 5.452 60.8775 5.596C60.5735 5.73467 60.3175 5.93733 60.1095 6.204C59.9068 6.47067 59.7522 6.79333 59.6455 7.172C59.5442 7.55067 59.4935 7.97467 59.4935 8.444C59.4935 8.93467 59.5495 9.372 59.6615 9.756C59.7735 10.1347 59.9308 10.4547 60.1335 10.716C60.3362 10.972 60.5815 11.1693 60.8695 11.308C61.1628 11.4413 61.4908 11.508 61.8535 11.508C62.2002 11.508 62.4855 11.468 62.7095 11.388C62.9335 11.3027 63.1202 11.2093 63.2695 11.108C63.4188 11.0067 63.5415 10.916 63.6375 10.836C63.7335 10.7507 63.8295 10.708 63.9255 10.708C64.0482 10.708 64.1388 10.7533 64.1975 10.844L64.5975 11.364C64.2455 11.796 63.8055 12.1133 63.2775 12.316C62.7495 12.5133 62.1922 12.612 61.6055 12.612C61.0988 12.612 60.6268 12.5187 60.1895 12.332C59.7575 12.1453 59.3815 11.876 59.0615 11.524C58.7415 11.1667 58.4882 10.7293 58.3015 10.212C58.1202 9.69467 58.0295 9.10533 58.0295 8.444C58.0295 7.84133 58.1122 7.284 58.2775 6.772C58.4482 6.26 58.6935 5.82 59.0135 5.452C59.3388 5.07867 59.7388 4.788 60.2135 4.58C60.6882 4.372 61.2322 4.268 61.8455 4.268C62.4108 4.268 62.9122 4.36133 63.3495 4.548C63.7868 4.72933 64.1735 4.988 64.5095 5.324L64.1335 5.836ZM72.0263 12.5H71.3943C71.2556 12.5 71.1436 12.4787 71.0583 12.436C70.9729 12.3933 70.9169 12.3027 70.8903 12.164L70.7303 11.412C70.5169 11.604 70.3089 11.7773 70.1063 11.932C69.9036 12.0813 69.6903 12.2093 69.4663 12.316C69.2423 12.4173 69.0023 12.4947 68.7463 12.548C68.4956 12.6013 68.2156 12.628 67.9063 12.628C67.5916 12.628 67.2956 12.5853 67.0182 12.5C66.7463 12.4093 66.5089 12.276 66.3063 12.1C66.1036 11.924 65.9409 11.7027 65.8183 11.436C65.7009 11.164 65.6423 10.844 65.6423 10.476C65.6423 10.156 65.7303 9.84933 65.9062 9.556C66.0823 9.25733 66.3649 8.99333 66.7543 8.764C67.1489 8.53467 67.6636 8.348 68.2983 8.204C68.9329 8.05467 69.7089 7.96933 70.6263 7.948V7.316C70.6263 6.68667 70.4903 6.212 70.2183 5.892C69.9516 5.56667 69.5543 5.404 69.0263 5.404C68.6796 5.404 68.3863 5.44933 68.1463 5.54C67.9116 5.62533 67.7063 5.724 67.5303 5.836C67.3596 5.94267 67.2103 6.04133 67.0823 6.132C66.9596 6.21733 66.8369 6.26 66.7143 6.26C66.6183 6.26 66.5329 6.236 66.4583 6.188C66.3889 6.13467 66.3329 6.07067 66.2903 5.996L66.0343 5.54C66.4823 5.108 66.9649 4.78533 67.4823 4.572C67.9996 4.35867 68.5729 4.252 69.2023 4.252C69.6556 4.252 70.0583 4.32667 70.4103 4.476C70.7623 4.62533 71.0583 4.83333 71.2983 5.1C71.5383 5.36667 71.7196 5.68933 71.8423 6.068C71.9649 6.44667 72.0263 6.86267 72.0263 7.316V12.5ZM68.3303 11.628C68.5809 11.628 68.8103 11.604 69.0182 11.556C69.2263 11.5027 69.4209 11.4307 69.6023 11.34C69.7889 11.244 69.9649 11.1293 70.1303 10.996C70.3009 10.8627 70.4663 10.7107 70.6263 10.54V8.852C69.9703 8.87333 69.4129 8.92667 68.9543 9.012C68.4956 9.092 68.1223 9.19867 67.8343 9.332C67.5463 9.46533 67.3356 9.62267 67.2023 9.804C67.0743 9.98533 67.0103 10.188 67.0103 10.412C67.0103 10.6253 67.0449 10.8093 67.1143 10.964C67.1836 11.1187 67.2769 11.2467 67.3943 11.348C67.5116 11.444 67.6503 11.516 67.8103 11.564C67.9703 11.6067 68.1436 11.628 68.3303 11.628ZM79.8876 12.5C79.685 12.5 79.557 12.4013 79.5036 12.204L79.3756 11.22C79.029 11.6413 78.6316 11.98 78.1836 12.236C77.741 12.4867 77.2316 12.612 76.6556 12.612C76.1916 12.612 75.7703 12.524 75.3916 12.348C75.013 12.1667 74.6903 11.9027 74.4236 11.556C74.157 11.2093 73.9516 10.7773 73.8076 10.26C73.6636 9.74267 73.5916 9.148 73.5916 8.476C73.5916 7.87867 73.6716 7.324 73.8316 6.812C73.9916 6.29467 74.221 5.84667 74.5196 5.468C74.8236 5.08933 75.1916 4.79333 75.6236 4.58C76.0556 4.36133 76.5463 4.252 77.0956 4.252C77.5916 4.252 78.0156 4.33733 78.3676 4.508C78.7196 4.67333 79.0343 4.908 79.3116 5.212V0.716H80.7356V12.5H79.8876ZM77.1276 11.46C77.5916 11.46 77.997 11.3533 78.3436 11.14C78.6956 10.9267 79.0183 10.6253 79.3116 10.236V6.316C79.0503 5.964 78.7623 5.71867 78.4476 5.58C78.1383 5.436 77.7943 5.364 77.4156 5.364C76.6583 5.364 76.077 5.63333 75.6716 6.172C75.2663 6.71067 75.0636 7.47867 75.0636 8.476C75.0636 9.004 75.109 9.45733 75.1996 9.836C75.2903 10.2093 75.4236 10.5187 75.5996 10.764C75.7756 11.004 75.9916 11.18 76.2476 11.292C76.5036 11.404 76.797 11.46 77.1276 11.46ZM86.3291 4.268C86.8145 4.268 87.2625 4.35067 87.6731 4.516C88.0838 4.676 88.4385 4.91067 88.7371 5.22C89.0358 5.524 89.2678 5.90267 89.4331 6.356C89.6038 6.804 89.6891 7.316 89.6891 7.892C89.6891 8.116 89.6651 8.26533 89.6171 8.34C89.5691 8.41467 89.4785 8.452 89.3451 8.452H83.9531C83.9638 8.964 84.0331 9.40933 84.1611 9.788C84.2891 10.1667 84.4651 10.484 84.6891 10.74C84.9131 10.9907 85.1798 11.18 85.4891 11.308C85.7985 11.4307 86.1451 11.492 86.5291 11.492C86.8865 11.492 87.1931 11.452 87.4491 11.372C87.7105 11.2867 87.9345 11.196 88.1211 11.1C88.3078 11.004 88.4625 10.916 88.5851 10.836C88.7131 10.7507 88.8225 10.708 88.9131 10.708C89.0305 10.708 89.1211 10.7533 89.1851 10.844L89.5851 11.364C89.4091 11.5773 89.1985 11.764 88.9531 11.924C88.7078 12.0787 88.4438 12.2067 88.1611 12.308C87.8838 12.4093 87.5958 12.484 87.2971 12.532C86.9985 12.5853 86.7025 12.612 86.4091 12.612C85.8491 12.612 85.3318 12.5187 84.8571 12.332C84.3878 12.14 83.9798 11.8627 83.6331 11.5C83.2918 11.132 83.0251 10.6787 82.8331 10.14C82.6411 9.60133 82.5451 8.98267 82.5451 8.284C82.5451 7.71867 82.6305 7.19067 82.8011 6.7C82.9771 6.20933 83.2278 5.78533 83.5531 5.428C83.8785 5.06533 84.2758 4.78267 84.7451 4.58C85.2145 4.372 85.7425 4.268 86.3291 4.268ZM86.3611 5.316C85.6731 5.316 85.1318 5.516 84.7371 5.916C84.3425 6.31067 84.0971 6.86 84.0011 7.564H88.4091C88.4091 7.23333 88.3638 6.932 88.2731 6.66C88.1825 6.38267 88.0491 6.14533 87.8731 5.948C87.6971 5.74533 87.4811 5.59067 87.2251 5.484C86.9745 5.372 86.6865 5.316 86.3611 5.316ZM91.5118 12.5V4.396H92.3598C92.5624 4.396 92.6904 4.49467 92.7438 4.692L92.8478 5.524C93.1464 5.156 93.4798 4.85467 93.8478 4.62C94.2211 4.38533 94.6531 4.268 95.1438 4.268C95.6931 4.268 96.1358 4.42 96.4718 4.724C96.8131 5.028 97.0584 5.43867 97.2078 5.956C97.3198 5.66267 97.4664 5.40933 97.6478 5.196C97.8344 4.98267 98.0424 4.80667 98.2718 4.668C98.5011 4.52933 98.7438 4.428 98.9998 4.364C99.2611 4.3 99.5251 4.268 99.7918 4.268C100.218 4.268 100.597 4.33733 100.928 4.476C101.264 4.60933 101.546 4.80667 101.776 5.068C102.01 5.32933 102.189 5.652 102.312 6.036C102.434 6.41467 102.496 6.84933 102.496 7.34V12.5H101.072V7.34C101.072 6.70533 100.933 6.22533 100.656 5.9C100.378 5.56933 99.9758 5.404 99.4478 5.404C99.2131 5.404 98.9891 5.44667 98.7758 5.532C98.5678 5.612 98.3838 5.732 98.2238 5.892C98.0638 6.052 97.9358 6.25467 97.8398 6.5C97.7491 6.74 97.7038 7.02 97.7038 7.34V12.5H96.2798V7.34C96.2798 6.68933 96.1491 6.204 95.8878 5.884C95.6264 5.564 95.2451 5.404 94.7438 5.404C94.3918 5.404 94.0638 5.5 93.7598 5.692C93.4611 5.87867 93.1864 6.13467 92.9358 6.46V12.5H91.5118ZM106.778 14.892C106.73 14.9987 106.669 15.084 106.594 15.148C106.525 15.212 106.416 15.244 106.266 15.244H105.21L106.69 12.028L103.346 4.396H104.578C104.701 4.396 104.797 4.428 104.866 4.492C104.936 4.55067 104.986 4.61733 105.018 4.692L107.186 9.796C107.234 9.91333 107.274 10.0307 107.306 10.148C107.344 10.2653 107.376 10.3853 107.402 10.508C107.44 10.3853 107.477 10.2653 107.514 10.148C107.552 10.0307 107.594 9.91067 107.642 9.788L109.746 4.692C109.778 4.60667 109.832 4.53733 109.906 4.484C109.986 4.42533 110.072 4.396 110.162 4.396H111.298L106.778 14.892Z" fill="#444444"/>
</svg>
